<svg width="103" height="50" viewBox="0 0 103 50" fill="none" xmlns="http://www.w3.org/2000/svg">
<path d="M17.0296 45.9339C17.0296 46.1426 17.0296 46.3513 17.0296 46.56C17.0713 46.7687 17.0713 46.9774 17.0296 47.1861C16.9043 48.1878 16.3617 48.6887 15.4017 48.6887C13.9826 48.7304 12.5635 48.7513 11.1443 48.7513C9.76696 48.793 8.3687 48.8139 6.94957 48.8139C6.32348 48.8139 5.86435 48.6678 5.57217 48.3757C5.32174 48.0835 5.15478 47.6243 5.0713 46.9983C5.02957 46.7478 5.0087 46.5183 5.0087 46.3096C5.05044 46.0591 5.0713 45.8087 5.0713 45.5583C5.02957 41.593 5.0087 37.6487 5.0087 33.7252C5.0087 29.76 5.0087 25.7948 5.0087 21.8296V21.2035C4.96696 20.4939 4.88348 20.0974 4.75826 20.0139C4.67478 19.8887 4.27826 19.8261 3.5687 19.8261C3.36 19.8261 3.13043 19.8261 2.88 19.8261C2.62957 19.7843 2.4 19.7635 2.1913 19.7635C1.39826 19.8052 0.876522 19.7217 0.626087 19.513C0.417391 19.2626 0.333913 18.7617 0.375652 18.0104C0.375652 17.1757 0.375652 16.3617 0.375652 15.5687C0.417391 14.7757 0.45913 13.9826 0.50087 13.1896C0.542609 12.8557 0.563478 12.5217 0.563478 12.1878C0.605217 11.8122 0.626087 11.4574 0.626087 11.1235C0.667826 10.3722 1.10609 9.93391 1.94087 9.8087C4.23652 9.8087 6.53217 9.8087 8.82783 9.8087C11.1235 9.76696 13.4191 9.72522 15.7148 9.68348C16.3409 9.68348 16.7374 9.80869 16.9043 10.0591C17.113 10.2678 17.2174 10.7478 17.2174 11.4991V26.8383C17.2174 26.88 17.1965 27.0261 17.1548 27.2765C17.1548 27.527 17.1339 28.2574 17.0922 29.4678C17.0922 30.6783 17.0713 32.5774 17.0296 35.1652C17.0296 37.7113 17.0296 41.3009 17.0296 45.9339ZM24.5772 29.0922C24.619 27.4643 24.7859 25.8365 25.0781 24.2087C25.3703 22.5809 25.8085 21.0157 26.3929 19.513C27.019 18.0104 27.812 16.6122 28.772 15.3183C29.732 13.9826 30.859 12.793 32.1529 11.7496C33.3216 10.8313 34.532 10.1635 35.7842 9.74609C37.0781 9.28695 38.372 9.05739 39.6659 9.05739C41.0433 9.05739 42.3581 9.28695 43.6103 9.74609C44.9042 10.2052 46.0937 10.8313 47.179 11.6243C48.3059 12.4174 49.3076 13.3357 50.1842 14.3791C51.0607 15.4226 51.7911 16.5496 52.3755 17.76C56.0485 25.1896 56.1946 32.7026 52.8137 40.2991C52.2711 41.5513 51.5616 42.7409 50.685 43.8678C49.8085 44.953 48.8276 45.9339 47.7424 46.8104C46.6572 47.6452 45.4468 48.2922 44.1111 48.7513C42.8172 49.2522 41.4607 49.5026 40.0416 49.5026C38.539 49.5026 37.1198 49.2313 35.7842 48.6887C34.4903 48.1878 33.2798 47.4991 32.1529 46.6226C31.0259 45.7461 30.0242 44.7235 29.1476 43.5548C28.2711 42.3861 27.5407 41.1548 26.9563 39.8609C26.205 38.3165 25.6207 36.5843 25.2033 34.6643C24.7859 32.7026 24.5772 30.8452 24.5772 29.0922ZM45.2381 28.967C45.2381 28.1739 45.1337 27.3183 44.925 26.4C44.7581 25.4817 44.445 24.6261 43.9859 23.833C43.5685 23.04 43.005 22.393 42.2955 21.8922C41.6276 21.3496 40.7929 21.0783 39.7911 21.0783C38.2885 21.0783 36.9946 21.8296 35.9094 23.3322C35.4085 24.0417 35.0329 24.8557 34.7824 25.7739C34.532 26.6922 34.4068 27.6313 34.4068 28.5913C34.4485 29.5513 34.6155 30.4904 34.9076 31.4087C35.1998 32.327 35.6172 33.1409 36.1598 33.8504C37.245 35.2278 38.4972 35.9165 39.9163 35.9165C40.7929 35.9165 41.5442 35.7078 42.1703 35.2904C42.8381 34.8313 43.4016 34.2678 43.8607 33.6C44.3198 32.8904 44.6537 32.1391 44.8624 31.3461C45.1129 30.5113 45.2381 29.7183 45.2381 28.967ZM92.958 0.229566H96.5893H97.1528C99.0728 0.271305 99.5945 1.14783 98.718 2.85913C97.1319 5.86435 95.525 8.89043 93.8971 11.9374C92.3111 14.9426 90.725 17.9478 89.1389 20.953L75.0519 47.8122C74.8015 48.2713 74.5928 48.6052 74.4258 48.8139C74.3006 49.0643 74.1545 49.2313 73.9876 49.3148C73.8206 49.44 73.5911 49.5026 73.2989 49.5026C73.0485 49.5026 72.6728 49.4817 72.1719 49.44C70.878 49.3565 69.5841 49.273 68.2902 49.1896C67.038 49.1061 65.7858 49.0226 64.5337 48.9391C64.2832 48.9391 64.0328 48.9391 63.7824 48.9391C63.5319 48.9391 63.3024 48.9183 63.0937 48.8765C62.3424 48.7096 62.0711 48.2296 62.2798 47.4365L62.8432 46.3096C66.8085 38.8383 70.7528 31.4296 74.6763 24.0835C78.5998 16.7374 82.5441 9.3287 86.5093 1.85739C87.0519 0.772174 87.9076 0.250435 89.0763 0.292175C89.7024 0.333911 90.3285 0.35478 90.9545 0.35478C91.6224 0.313043 92.2902 0.292175 92.958 0.292175V0.229566ZM77.9319 12.8139C77.9319 14.0661 77.6815 15.2557 77.1806 16.3826C76.7215 17.5096 76.0745 18.4904 75.2398 19.3252C74.4467 20.16 73.4867 20.807 72.3598 21.2661C71.2745 21.7252 70.1058 21.9548 68.8537 21.9548C67.6015 21.9548 66.4119 21.7252 65.285 21.2661C64.158 20.7652 63.1771 20.0974 62.3424 19.2626C61.5493 18.4278 60.9232 17.447 60.4641 16.32C60.005 15.193 59.7754 14.0035 59.7754 12.7513C59.7754 11.4991 60.005 10.3304 60.4641 9.24522C60.965 8.16 61.6119 7.22087 62.405 6.42782C63.2398 5.59304 64.1998 4.94608 65.285 4.48696C66.3702 3.98609 67.5389 3.73565 68.7911 3.73565C70.0432 3.73565 71.2328 3.96522 72.3598 4.42435C73.4867 4.88348 74.4467 5.53043 75.2398 6.36522C76.0745 7.15826 76.7215 8.11826 77.1806 9.24522C77.6815 10.3722 77.9319 11.5617 77.9319 12.8139ZM68.9789 11.6243C68.645 11.6243 68.3528 11.7496 68.1024 12C67.8937 12.2087 67.7893 12.48 67.7893 12.8139C67.7893 13.607 68.1858 14.0035 68.9789 14.0035C69.3128 14.0035 69.5841 13.8991 69.7928 13.6904C70.0015 13.4817 70.1058 13.2104 70.1058 12.8765C70.1058 12.5426 69.9806 12.2504 69.7302 12C69.5215 11.7496 69.2711 11.6243 68.9789 11.6243ZM84.3806 36.8557C84.3806 35.5617 84.6102 34.3722 85.0693 33.287C85.5285 32.16 86.1545 31.2 86.9476 30.407C87.7824 29.5722 88.7424 28.9252 89.8276 28.4661C90.9545 27.9652 92.1441 27.7148 93.3963 27.7148C94.6485 27.7148 95.838 27.9652 96.965 28.4661C98.0919 28.9252 99.0728 29.5722 99.9076 30.407C100.742 31.2 101.389 32.16 101.848 33.287C102.308 34.3722 102.537 35.5409 102.537 36.793C102.537 38.0452 102.308 39.2348 101.848 40.3617C101.389 41.447 100.742 42.407 99.9076 43.2417C99.1145 44.0348 98.1545 44.6817 97.0276 45.1826C95.9424 45.6417 94.7737 45.8713 93.5215 45.8713C92.2693 45.8713 91.0798 45.6417 89.9528 45.1826C88.8258 44.7235 87.845 44.0974 87.0102 43.3043C86.2171 42.4696 85.5702 41.5096 85.0693 40.4243C84.6102 39.2974 84.3806 38.1078 84.3806 36.8557ZM93.5841 37.9826C93.918 37.9826 94.1893 37.8574 94.398 37.607C94.6485 37.3565 94.7528 37.0643 94.7111 36.7304C94.7111 36.4383 94.565 36.167 94.2728 35.9165C94.0224 35.6661 93.7719 35.5617 93.5215 35.6035C93.1876 35.6035 92.8954 35.7287 92.645 35.9791C92.4363 36.2296 92.3319 36.5217 92.3319 36.8557C92.3319 37.1478 92.4571 37.4191 92.7076 37.6696C92.958 37.92 93.2502 38.0243 93.5841 37.9826Z" fill="#1F3245" fill-opacity="0.85"/>
</svg>
