<svg width="127" height="46" viewBox="0 0 127 46" fill="none" xmlns="http://www.w3.org/2000/svg">
<path d="M15.6104 42.1061C15.6104 42.2974 15.6104 42.4887 15.6104 42.68C15.6487 42.8713 15.6487 43.0626 15.6104 43.2539C15.4957 44.1722 14.9983 44.6313 14.1183 44.6313C12.8174 44.6696 11.5165 44.6887 10.2157 44.6887C8.95304 44.727 7.6713 44.7461 6.37044 44.7461C5.79652 44.7461 5.37565 44.6122 5.10783 44.3443C4.87826 44.0765 4.72522 43.6557 4.6487 43.0817C4.61044 42.8522 4.5913 42.6417 4.5913 42.4504C4.62957 42.2209 4.6487 41.9913 4.6487 41.7617C4.61044 38.127 4.5913 34.5113 4.5913 30.9148C4.5913 27.28 4.5913 23.6452 4.5913 20.0104V19.4365C4.55304 18.7861 4.47652 18.4226 4.36174 18.3461C4.28522 18.2313 3.92174 18.1739 3.2713 18.1739C3.08 18.1739 2.86957 18.1739 2.64 18.1739C2.41043 18.1357 2.2 18.1165 2.0087 18.1165C1.28174 18.1548 0.803478 18.0783 0.573913 17.887C0.382609 17.6574 0.306087 17.1983 0.344348 16.5096C0.344348 15.7443 0.344348 14.9983 0.344348 14.2713C0.382609 13.5443 0.42087 12.8174 0.45913 12.0904C0.497391 11.7843 0.516522 11.4783 0.516522 11.1722C0.554783 10.8278 0.573913 10.5026 0.573913 10.1965C0.612174 9.50783 1.01391 9.10609 1.77913 8.9913C3.88348 8.9913 5.98783 8.9913 8.09217 8.9913C10.1965 8.95304 12.3009 8.91478 14.4052 8.87652C14.9791 8.87652 15.3426 8.9913 15.4957 9.22087C15.687 9.41217 15.7826 9.85217 15.7826 10.5409V24.6017C15.7826 24.64 15.7635 24.7739 15.7252 25.0035C15.7252 25.233 15.7061 25.9026 15.6678 27.0122C15.6678 28.1217 15.6487 29.8626 15.6104 32.2348C15.6104 34.5687 15.6104 37.8591 15.6104 42.1061ZM22.5291 26.6678C22.5674 25.1757 22.7204 23.6835 22.9882 22.1913C23.2561 20.6991 23.6578 19.2643 24.1935 17.887C24.7674 16.5096 25.4943 15.2278 26.3743 14.0417C27.2543 12.8174 28.2874 11.727 29.4735 10.7704C30.5448 9.92869 31.6543 9.31652 32.8022 8.93391C33.9882 8.51304 35.1743 8.30261 36.3604 8.30261C37.623 8.30261 38.8282 8.51304 39.9761 8.93391C41.1622 9.35478 42.2526 9.9287 43.2474 10.6557C44.2804 11.3826 45.1987 12.2243 46.0022 13.1809C46.8056 14.1374 47.4752 15.1704 48.0109 16.28C51.3778 23.0904 51.5117 29.9774 48.4126 36.9409C47.9152 38.0887 47.2648 39.1791 46.4613 40.2122C45.6578 41.207 44.7587 42.1061 43.7639 42.9096C42.7691 43.6748 41.6595 44.2678 40.4352 44.6887C39.2491 45.1478 38.0056 45.3774 36.7048 45.3774C35.3274 45.3774 34.0265 45.1287 32.8022 44.6313C31.6161 44.1722 30.5065 43.5409 29.4735 42.7374C28.4404 41.9339 27.5222 40.9965 26.7187 39.9252C25.9152 38.8539 25.2456 37.7252 24.71 36.5391C24.0213 35.1235 23.4856 33.5357 23.103 31.7757C22.7204 29.9774 22.5291 28.2748 22.5291 26.6678ZM41.4682 26.553C41.4682 25.8261 41.3726 25.0417 41.1813 24.2C41.0282 23.3583 40.7413 22.5739 40.3204 21.847C39.9378 21.12 39.4213 20.527 38.7709 20.0678C38.1587 19.5704 37.3935 19.3217 36.4752 19.3217C35.0978 19.3217 33.9117 20.0104 32.9169 21.3878C32.4578 22.0383 32.1135 22.7843 31.8839 23.6261C31.6543 24.4678 31.5395 25.3287 31.5395 26.2087C31.5778 27.0887 31.7309 27.9496 31.9987 28.7913C32.2665 29.633 32.6491 30.3791 33.1465 31.0296C34.1413 32.2922 35.2891 32.9235 36.59 32.9235C37.3935 32.9235 38.0822 32.7322 38.6561 32.3496C39.2682 31.9287 39.7848 31.4122 40.2056 30.8C40.6265 30.1496 40.9326 29.4609 41.1239 28.7339C41.3535 27.9687 41.4682 27.2417 41.4682 26.553ZM55.2533 26.6678C55.2915 25.1757 55.4446 23.6835 55.7124 22.1913C55.9802 20.6991 56.3819 19.2643 56.9176 17.887C57.4915 16.5096 58.2185 15.2278 59.0985 14.0417C59.9785 12.8174 61.0115 11.727 62.1976 10.7704C63.2689 9.92869 64.3785 9.31652 65.5263 8.93391C66.7124 8.51304 67.8985 8.30261 69.0846 8.30261C70.3472 8.30261 71.5524 8.51304 72.7002 8.93391C73.8863 9.35478 74.9767 9.9287 75.9715 10.6557C77.0046 11.3826 77.9228 12.2243 78.7263 13.1809C79.5298 14.1374 80.1993 15.1704 80.735 16.28C84.1019 23.0904 84.2359 29.9774 81.1367 36.9409C80.6393 38.0887 79.9889 39.1791 79.1854 40.2122C78.3819 41.207 77.4828 42.1061 76.488 42.9096C75.4933 43.6748 74.3837 44.2678 73.1593 44.6887C71.9733 45.1478 70.7298 45.3774 69.4289 45.3774C68.0515 45.3774 66.7506 45.1287 65.5263 44.6313C64.3402 44.1722 63.2306 43.5409 62.1976 42.7374C61.1646 41.9339 60.2463 40.9965 59.4428 39.9252C58.6393 38.8539 57.9698 37.7252 57.4341 36.5391C56.7454 35.1235 56.2098 33.5357 55.8272 31.7757C55.4446 29.9774 55.2533 28.2748 55.2533 26.6678ZM74.1924 26.553C74.1924 25.8261 74.0967 25.0417 73.9054 24.2C73.7524 23.3583 73.4654 22.5739 73.0446 21.847C72.6619 21.12 72.1454 20.527 71.495 20.0678C70.8828 19.5704 70.1176 19.3217 69.1993 19.3217C67.8219 19.3217 66.6359 20.0104 65.6411 21.3878C65.1819 22.0383 64.8376 22.7843 64.608 23.6261C64.3785 24.4678 64.2637 25.3287 64.2637 26.2087C64.3019 27.0887 64.455 27.9496 64.7228 28.7913C64.9906 29.633 65.3733 30.3791 65.8706 31.0296C66.8654 32.2922 68.0133 32.9235 69.3141 32.9235C70.1176 32.9235 70.8063 32.7322 71.3802 32.3496C71.9924 31.9287 72.5089 31.4122 72.9298 30.8C73.3506 30.1496 73.6567 29.4609 73.848 28.7339C74.0776 27.9687 74.1924 27.2417 74.1924 26.553ZM117.936 0.210435H121.264H121.781C123.541 0.248696 124.019 1.05217 123.216 2.62087C121.762 5.37565 120.289 8.14956 118.797 10.9426C117.343 13.6974 115.889 16.4522 114.435 19.207L101.522 43.8278C101.292 44.2487 101.101 44.5548 100.948 44.7461C100.833 44.9757 100.699 45.1287 100.546 45.2052C100.393 45.32 100.183 45.3774 99.9148 45.3774C99.6852 45.3774 99.3409 45.3583 98.8817 45.32C97.6957 45.2435 96.5096 45.167 95.3235 45.0904C94.1757 45.0139 93.0278 44.9374 91.88 44.8609C91.6504 44.8609 91.4209 44.8609 91.1913 44.8609C90.9617 44.8609 90.7513 44.8417 90.56 44.8035C89.8713 44.6504 89.6226 44.2104 89.8139 43.4835L90.3304 42.4504C93.9652 35.6017 97.5809 28.8104 101.177 22.0765C104.774 15.3426 108.39 8.5513 112.024 1.70261C112.522 0.707826 113.306 0.229566 114.377 0.267827C114.951 0.306085 115.525 0.325215 116.099 0.325215C116.711 0.286956 117.323 0.267827 117.936 0.267827V0.210435ZM104.162 11.7461C104.162 12.8939 103.932 13.9843 103.473 15.0174C103.052 16.0504 102.459 16.9496 101.694 17.7148C100.967 18.48 100.087 19.073 99.0539 19.4939C98.0591 19.9148 96.9878 20.1252 95.84 20.1252C94.6922 20.1252 93.6017 19.9148 92.5687 19.4939C91.5357 19.0348 90.6365 18.4226 89.8713 17.6574C89.1444 16.8922 88.5704 15.993 88.1496 14.96C87.7287 13.927 87.5183 12.8365 87.5183 11.6887C87.5183 10.5409 87.7287 9.46956 88.1496 8.47478C88.6087 7.48 89.2017 6.61913 89.9287 5.89217C90.6939 5.12695 91.5739 4.53391 92.5687 4.11304C93.5635 3.65391 94.6348 3.42435 95.7826 3.42435C96.9304 3.42435 98.0209 3.63478 99.0539 4.05565C100.087 4.47652 100.967 5.06957 101.694 5.83478C102.459 6.56174 103.052 7.44174 103.473 8.47478C103.932 9.50783 104.162 10.5983 104.162 11.7461ZM95.9548 10.6557C95.6487 10.6557 95.3809 10.7704 95.1513 11C94.96 11.1913 94.8644 11.44 94.8644 11.7461C94.8644 12.473 95.2278 12.8365 95.9548 12.8365C96.2609 12.8365 96.5096 12.7409 96.7009 12.5496C96.8922 12.3583 96.9878 12.1096 96.9878 11.8035C96.9878 11.4974 96.873 11.2296 96.6435 11C96.4522 10.7704 96.2226 10.6557 95.9548 10.6557ZM110.073 33.7843C110.073 32.5983 110.283 31.5078 110.704 30.513C111.125 29.48 111.699 28.6 112.426 27.873C113.191 27.1078 114.071 26.5148 115.066 26.0939C116.099 25.6348 117.19 25.4052 118.337 25.4052C119.485 25.4052 120.576 25.6348 121.609 26.0939C122.642 26.5148 123.541 27.1078 124.306 27.873C125.071 28.6 125.664 29.48 126.085 30.513C126.506 31.5078 126.717 32.5791 126.717 33.727C126.717 34.8748 126.506 35.9652 126.085 36.9983C125.664 37.993 125.071 38.873 124.306 39.6383C123.579 40.3652 122.699 40.9583 121.666 41.4174C120.671 41.8383 119.6 42.0487 118.452 42.0487C117.304 42.0487 116.214 41.8383 115.181 41.4174C114.148 40.9965 113.249 40.4226 112.483 39.6957C111.757 38.9304 111.163 38.0504 110.704 37.0557C110.283 36.0226 110.073 34.9322 110.073 33.7843ZM118.51 34.8174C118.816 34.8174 119.064 34.7026 119.256 34.473C119.485 34.2435 119.581 33.9757 119.543 33.6696C119.543 33.4017 119.409 33.153 119.141 32.9235C118.911 32.6939 118.682 32.5983 118.452 32.6365C118.146 32.6365 117.878 32.7513 117.649 32.9809C117.457 33.2104 117.362 33.4783 117.362 33.7843C117.362 34.0522 117.477 34.3009 117.706 34.5304C117.936 34.76 118.203 34.8557 118.51 34.8174Z" fill="#1F3245" fill-opacity="0.85"/>
</svg>
