<svg width="116" height="50" viewBox="0 0 116 50" fill="none" xmlns="http://www.w3.org/2000/svg">
<path d="M18.2209 38.6087L27.4243 38.7965C27.8 38.7965 28.1548 38.7965 28.4887 38.7965C28.8643 38.7548 29.24 38.7548 29.6157 38.7965C30.2835 38.8383 30.7217 38.9635 30.9304 39.1722C31.1809 39.3809 31.327 39.8191 31.3687 40.487V47.687C31.3687 48.1461 31.2852 48.4591 31.1183 48.6261C30.9513 48.793 30.6383 48.9183 30.1791 49.0017H29.24H28.4261C26.4226 49.0435 24.4191 49.0643 22.4157 49.0643C20.4122 49.0643 18.4087 49.0852 16.4052 49.127H15.5913H14.0261H13.2122H12.3983H10.833C10.1235 49.1687 9.43478 49.1896 8.76696 49.1896C8.14087 49.1896 7.49391 49.1896 6.82609 49.1896H6.01217H3.57043H2.81913C1.98435 49.1896 1.4 49.0226 1.06609 48.6887C0.732174 48.3965 0.544348 47.833 0.502609 46.9983C0.377391 43.5757 1.23304 40.5078 3.06957 37.7948C4.02957 36.3339 5.13565 35.04 6.38783 33.913C7.64 32.7443 8.95478 31.6174 10.3322 30.5322C10.9583 30.0313 11.5843 29.5513 12.2104 29.0922C12.8783 28.5913 13.5461 28.0904 14.2139 27.5896C14.7148 27.1722 15.1948 26.7548 15.6539 26.3374C16.1548 25.92 16.6139 25.44 17.0313 24.8974C17.407 24.4383 17.6991 23.9583 17.9078 23.4574C18.1165 22.9148 18.1791 22.3304 18.0957 21.7043C17.9704 20.4104 17.2609 19.8678 15.967 20.0765C15.1739 20.2017 14.4643 20.6817 13.8383 21.5165C13.2122 22.3513 12.92 23.1861 12.9617 24.0209C13.0035 24.8974 12.92 25.44 12.7113 25.6487C12.5443 25.8157 12.0435 25.9409 11.2087 26.0243C9.74783 26.1496 8.28696 26.2957 6.82609 26.4626C5.40696 26.5878 3.96696 26.7548 2.50609 26.9635C1.75478 27.0887 1.25391 27.047 1.00348 26.8383C0.753043 26.6296 0.627826 26.1496 0.627826 25.3983C0.627826 23.8539 0.857391 22.4139 1.31652 21.0783C1.81739 19.7009 2.48522 18.407 3.32 17.1965C5.07304 14.567 7.32696 12.5426 10.0817 11.1235C12.8365 9.66261 15.7791 8.93218 18.9096 8.93218C20.9965 8.93218 22.9165 9.22435 24.6696 9.8087C26.4643 10.393 28.0296 11.5617 29.3652 13.3148C30.4504 14.7757 31.1809 16.3409 31.5565 18.0104C31.9739 19.68 32.0991 21.3496 31.9322 23.0191C31.7652 24.6887 31.3478 26.2957 30.68 27.84C30.0122 29.3843 29.1357 30.7617 28.0504 31.9722C27.1739 32.9739 26.2139 33.8713 25.1704 34.6643C24.127 35.4157 23 36.0417 21.7896 36.5426C21.1635 36.8348 20.5374 37.1061 19.9113 37.3565C19.327 37.5652 18.7426 37.8783 18.1583 38.2957C18.2 38.3791 18.2209 38.4835 18.2209 38.6087ZM37.7023 20.2643C37.7023 18.7617 37.6815 17.28 37.6397 15.8191C37.6397 14.3165 37.6606 12.8139 37.7023 11.3113C37.7023 10.6017 37.8067 10.1426 38.0154 9.93391C38.2658 9.72522 38.7458 9.62087 39.4554 9.62087L64.1858 9.62087C65.0206 9.62087 65.5215 9.74609 65.6884 9.99652C65.8971 10.2052 66.0015 10.727 66.0015 11.5617C65.9597 13.6904 65.9597 15.7774 66.0015 17.8226C66.0432 18.6574 65.9388 19.2209 65.6884 19.513C65.438 19.7635 64.8954 19.8887 64.0606 19.8887H51.351C51.1423 19.8887 50.9336 19.8887 50.7249 19.8887C50.558 19.8887 50.3701 19.9096 50.1615 19.9513C49.8275 19.9513 49.6606 20.16 49.6606 20.5774C49.6606 20.953 49.8275 21.1409 50.1615 21.1409C52.1232 21.1409 53.918 21.2243 55.5458 21.3913C57.1736 21.5165 58.9058 21.9757 60.7423 22.7687C62.4536 23.4783 63.8936 24.4174 65.0623 25.5861C66.2728 26.7548 67.1702 28.2574 67.7545 30.0939C68.2136 31.3878 68.4015 32.6609 68.318 33.913C68.2345 35.1652 67.9423 36.4383 67.4415 37.7322C66.0641 41.3635 63.9354 44.2435 61.0554 46.3722C58.2171 48.5009 54.8571 49.5652 50.9754 49.5652C48.8467 49.5652 46.8849 49.1896 45.0901 48.4383C43.3371 47.687 41.7719 46.5183 40.3945 44.9322C39.9771 44.473 39.7684 44.0974 39.7684 43.8052C39.7684 43.4713 39.9771 43.0748 40.3945 42.6157C41.271 41.6139 42.231 40.7165 43.2745 39.9235C44.3597 39.1304 45.3823 38.2748 46.3423 37.3565C46.6345 37.1478 46.9058 37.1687 47.1562 37.4191C47.2815 37.5026 47.4067 37.607 47.5319 37.7322C47.6571 37.8574 47.7823 37.9617 47.9075 38.0452C48.7841 38.5878 49.598 38.8591 50.3493 38.8591C51.3928 38.8591 52.3945 38.4626 53.3545 37.6696C54.3145 36.8348 54.9406 35.9374 55.2328 34.9774C55.5667 33.8087 55.5041 32.8278 55.0449 32.0348C54.5858 31.2 53.751 30.6574 52.5406 30.407C51.5806 30.1983 50.5997 30.073 49.598 30.0313C48.638 29.9896 47.6571 29.9896 46.6554 30.0313C45.3197 30.1148 44.0049 30.1774 42.711 30.2191C41.4171 30.2191 40.1232 30.24 38.8293 30.2817C38.2449 30.2817 37.911 30.24 37.8275 30.1565C37.7441 30.073 37.7023 29.7391 37.7023 29.1548C37.6606 27.6939 37.6397 26.2122 37.6397 24.7096C37.6815 23.207 37.7023 21.7252 37.7023 20.2643ZM105.81 0.229566H109.441H110.004C111.924 0.271305 112.446 1.14783 111.57 2.85913C109.983 5.86435 108.377 8.89043 106.749 11.9374C105.163 14.9426 103.577 17.9478 101.99 20.953L87.9035 47.8122C87.6531 48.2713 87.4444 48.6052 87.2774 48.8139C87.1522 49.0643 87.0061 49.2313 86.8391 49.3148C86.6722 49.44 86.4426 49.5026 86.1504 49.5026C85.9 49.5026 85.5244 49.4817 85.0235 49.44C83.7296 49.3565 82.4357 49.273 81.1418 49.1896C79.8896 49.1061 78.6374 49.0226 77.3852 48.9391C77.1348 48.9391 76.8844 48.9391 76.6339 48.9391C76.3835 48.9391 76.1539 48.9183 75.9452 48.8765C75.1939 48.7096 74.9226 48.2296 75.1313 47.4365L75.6948 46.3096C79.66 38.8383 83.6044 31.4296 87.5278 24.0835C91.4513 16.7374 95.3957 9.3287 99.3609 1.85739C99.9035 0.772174 100.759 0.250435 101.928 0.292175C102.554 0.333911 103.18 0.35478 103.806 0.35478C104.474 0.313043 105.142 0.292175 105.81 0.292175V0.229566ZM90.7835 12.8139C90.7835 14.0661 90.5331 15.2557 90.0322 16.3826C89.5731 17.5096 88.9261 18.4904 88.0913 19.3252C87.2983 20.16 86.3383 20.807 85.2113 21.2661C84.1261 21.7252 82.9574 21.9548 81.7052 21.9548C80.4531 21.9548 79.2635 21.7252 78.1365 21.2661C77.0096 20.7652 76.0287 20.0974 75.1939 19.2626C74.4009 18.4278 73.7748 17.447 73.3157 16.32C72.8565 15.193 72.627 14.0035 72.627 12.7513C72.627 11.4991 72.8565 10.3304 73.3157 9.24522C73.8165 8.16 74.4635 7.22087 75.2565 6.42782C76.0913 5.59304 77.0513 4.94608 78.1365 4.48696C79.2218 3.98609 80.3904 3.73565 81.6426 3.73565C82.8948 3.73565 84.0844 3.96522 85.2113 4.42435C86.3383 4.88348 87.2983 5.53043 88.0913 6.36522C88.9261 7.15826 89.5731 8.11826 90.0322 9.24522C90.5331 10.3722 90.7835 11.5617 90.7835 12.8139ZM81.8304 11.6243C81.4965 11.6243 81.2044 11.7496 80.9539 12C80.7452 12.2087 80.6409 12.48 80.6409 12.8139C80.6409 13.607 81.0374 14.0035 81.8304 14.0035C82.1644 14.0035 82.4357 13.8991 82.6444 13.6904C82.8531 13.4817 82.9574 13.2104 82.9574 12.8765C82.9574 12.5426 82.8322 12.2504 82.5818 12C82.3731 11.7496 82.1226 11.6243 81.8304 11.6243ZM97.2322 36.8557C97.2322 35.5617 97.4618 34.3722 97.9209 33.287C98.38 32.16 99.0061 31.2 99.7991 30.407C100.634 29.5722 101.594 28.9252 102.679 28.4661C103.806 27.9652 104.996 27.7148 106.248 27.7148C107.5 27.7148 108.69 27.9652 109.817 28.4661C110.943 28.9252 111.924 29.5722 112.759 30.407C113.594 31.2 114.241 32.16 114.7 33.287C115.159 34.3722 115.389 35.5409 115.389 36.793C115.389 38.0452 115.159 39.2348 114.7 40.3617C114.241 41.447 113.594 42.407 112.759 43.2417C111.966 44.0348 111.006 44.6817 109.879 45.1826C108.794 45.6417 107.625 45.8713 106.373 45.8713C105.121 45.8713 103.931 45.6417 102.804 45.1826C101.677 44.7235 100.697 44.0974 99.8618 43.3043C99.0687 42.4696 98.4218 41.5096 97.9209 40.4243C97.4618 39.2974 97.2322 38.1078 97.2322 36.8557ZM106.436 37.9826C106.77 37.9826 107.041 37.8574 107.25 37.607C107.5 37.3565 107.604 37.0643 107.563 36.7304C107.563 36.4383 107.417 36.167 107.124 35.9165C106.874 35.6661 106.623 35.5617 106.373 35.6035C106.039 35.6035 105.747 35.7287 105.497 35.9791C105.288 36.2296 105.183 36.5217 105.183 36.8557C105.183 37.1478 105.309 37.4191 105.559 37.6696C105.81 37.92 106.102 38.0243 106.436 37.9826Z" fill="#1F3245" fill-opacity="0.85"/>
</svg>
