<svg width="115" height="50" viewBox="0 0 115 50" fill="none" xmlns="http://www.w3.org/2000/svg">
<path d="M0.878261 20.2643C0.878261 18.7617 0.857391 17.28 0.815652 15.8191C0.815652 14.3165 0.836522 12.8139 0.878261 11.3113C0.878261 10.6017 0.982609 10.1426 1.1913 9.93391C1.44174 9.72522 1.92174 9.62087 2.6313 9.62087H27.3617C28.1965 9.62087 28.6974 9.74609 28.8643 9.99652C29.073 10.2052 29.1774 10.727 29.1774 11.5617C29.1357 13.6904 29.1357 15.7774 29.1774 17.8226C29.2191 18.6574 29.1148 19.2209 28.8643 19.513C28.6139 19.7635 28.0713 19.8887 27.2365 19.8887H14.527C14.3183 19.8887 14.1096 19.8887 13.9009 19.8887C13.7339 19.8887 13.5461 19.9096 13.3374 19.9513C13.0035 19.9513 12.8365 20.16 12.8365 20.5774C12.8365 20.953 13.0035 21.1409 13.3374 21.1409C15.2991 21.1409 17.0939 21.2243 18.7217 21.3913C20.3496 21.5165 22.0817 21.9757 23.9183 22.7687C25.6296 23.4783 27.0696 24.4174 28.2383 25.5861C29.4487 26.7548 30.3461 28.2574 30.9304 30.0939C31.3896 31.3878 31.5774 32.6609 31.4939 33.913C31.4104 35.1652 31.1183 36.4383 30.6174 37.7322C29.24 41.3635 27.1113 44.2435 24.2313 46.3722C21.393 48.5009 18.033 49.5652 14.1513 49.5652C12.0226 49.5652 10.0609 49.1896 8.26609 48.4383C6.51304 47.687 4.94783 46.5183 3.57043 44.9322C3.15304 44.473 2.94435 44.0974 2.94435 43.8052C2.94435 43.4713 3.15304 43.0748 3.57043 42.6157C4.44696 41.6139 5.40696 40.7165 6.45043 39.9235C7.53565 39.1304 8.55826 38.2748 9.51826 37.3565C9.81044 37.1478 10.0817 37.1687 10.3322 37.4191C10.4574 37.5026 10.5826 37.607 10.7078 37.7322C10.833 37.8574 10.9583 37.9617 11.0835 38.0452C11.96 38.5878 12.7739 38.8591 13.5252 38.8591C14.5687 38.8591 15.5704 38.4626 16.5304 37.6696C17.4904 36.8348 18.1165 35.9374 18.4087 34.9774C18.7426 33.8087 18.68 32.8278 18.2209 32.0348C17.7617 31.2 16.927 30.6574 15.7165 30.407C14.7565 30.1983 13.7757 30.073 12.7739 30.0313C11.8139 29.9896 10.833 29.9896 9.83131 30.0313C8.49565 30.1148 7.18087 30.1774 5.88696 30.2191C4.59304 30.2191 3.29913 30.24 2.00522 30.2817C1.42087 30.2817 1.08696 30.24 1.00348 30.1565C0.92 30.073 0.878261 29.7391 0.878261 29.1548C0.836522 27.6939 0.815652 26.2122 0.815652 24.7096C0.857391 23.207 0.878261 21.7252 0.878261 20.2643ZM36.3038 29.0922C36.3455 27.4643 36.5125 25.8365 36.8046 24.2087C37.0968 22.5809 37.5351 21.0157 38.1194 19.513C38.7455 18.0104 39.5386 16.6122 40.4986 15.3183C41.4586 13.9826 42.5855 12.793 43.8794 11.7496C45.0481 10.8313 46.2586 10.1635 47.5107 9.74609C48.8046 9.28695 50.0986 9.05739 51.3925 9.05739C52.7699 9.05739 54.0846 9.28695 55.3368 9.74609C56.6307 10.2052 57.8203 10.8313 58.9055 11.6243C60.0325 12.4174 61.0342 13.3357 61.9107 14.3791C62.7873 15.4226 63.5177 16.5496 64.102 17.76C67.7751 25.1896 67.9212 32.7026 64.5403 40.2991C63.9977 41.5513 63.2881 42.7409 62.4116 43.8678C61.5351 44.953 60.5542 45.9339 59.469 46.8104C58.3838 47.6452 57.1733 48.2922 55.8377 48.7513C54.5438 49.2522 53.1873 49.5026 51.7681 49.5026C50.2655 49.5026 48.8464 49.2313 47.5107 48.6887C46.2168 48.1878 45.0064 47.4991 43.8794 46.6226C42.7525 45.7461 41.7507 44.7235 40.8742 43.5548C39.9977 42.3861 39.2673 41.1548 38.6829 39.8609C37.9316 38.3165 37.3473 36.5843 36.9299 34.6643C36.5125 32.7026 36.3038 30.8452 36.3038 29.0922ZM56.9646 28.967C56.9646 28.1739 56.8603 27.3183 56.6516 26.4C56.4846 25.4817 56.1716 24.6261 55.7125 23.833C55.2951 23.04 54.7316 22.393 54.022 21.8922C53.3542 21.3496 52.5194 21.0783 51.5177 21.0783C50.0151 21.0783 48.7212 21.8296 47.636 23.3322C47.1351 24.0417 46.7594 24.8557 46.509 25.7739C46.2586 26.6922 46.1333 27.6313 46.1333 28.5913C46.1751 29.5513 46.342 30.4904 46.6342 31.4087C46.9264 32.327 47.3438 33.1409 47.8864 33.8504C48.9716 35.2278 50.2238 35.9165 51.6429 35.9165C52.5194 35.9165 53.2707 35.7078 53.8968 35.2904C54.5646 34.8313 55.1281 34.2678 55.5873 33.6C56.0464 32.8904 56.3803 32.1391 56.589 31.3461C56.8394 30.5113 56.9646 29.7183 56.9646 28.967ZM104.685 0.229566H108.316H108.879C110.799 0.271305 111.321 1.14783 110.445 2.85913C108.858 5.86435 107.252 8.89043 105.624 11.9374C104.038 14.9426 102.452 17.9478 100.865 20.953L86.7785 47.8122C86.5281 48.2713 86.3194 48.6052 86.1524 48.8139C86.0272 49.0643 85.8811 49.2313 85.7141 49.3148C85.5472 49.44 85.3176 49.5026 85.0254 49.5026C84.775 49.5026 84.3994 49.4817 83.8985 49.44C82.6046 49.3565 81.3107 49.273 80.0168 49.1896C78.7646 49.1061 77.5124 49.0226 76.2602 48.9391C76.0098 48.9391 75.7594 48.9391 75.5089 48.9391C75.2585 48.9391 75.0289 48.9183 74.8202 48.8765C74.0689 48.7096 73.7976 48.2296 74.0063 47.4365L74.5698 46.3096C78.535 38.8383 82.4794 31.4296 86.4028 24.0835C90.3263 16.7374 94.2707 9.3287 98.2359 1.85739C98.7785 0.772174 99.6341 0.250435 100.803 0.292175C101.429 0.333911 102.055 0.35478 102.681 0.35478C103.349 0.313043 104.017 0.292175 104.685 0.292175V0.229566ZM89.6585 12.8139C89.6585 14.0661 89.4081 15.2557 88.9072 16.3826C88.4481 17.5096 87.8011 18.4904 86.9663 19.3252C86.1733 20.16 85.2133 20.807 84.0863 21.2661C83.0011 21.7252 81.8324 21.9548 80.5802 21.9548C79.3281 21.9548 78.1385 21.7252 77.0115 21.2661C75.8846 20.7652 74.9037 20.0974 74.0689 19.2626C73.2759 18.4278 72.6498 17.447 72.1907 16.32C71.7315 15.193 71.502 14.0035 71.502 12.7513C71.502 11.4991 71.7315 10.3304 72.1907 9.24522C72.6915 8.16 73.3385 7.22087 74.1315 6.42782C74.9663 5.59304 75.9263 4.94608 77.0115 4.48696C78.0968 3.98609 79.2654 3.73565 80.5176 3.73565C81.7698 3.73565 82.9594 3.96522 84.0863 4.42435C85.2133 4.88348 86.1733 5.53043 86.9663 6.36522C87.8011 7.15826 88.4481 8.11826 88.9072 9.24522C89.4081 10.3722 89.6585 11.5617 89.6585 12.8139ZM80.7054 11.6243C80.3715 11.6243 80.0794 11.7496 79.8289 12C79.6202 12.2087 79.5159 12.48 79.5159 12.8139C79.5159 13.607 79.9124 14.0035 80.7054 14.0035C81.0394 14.0035 81.3107 13.8991 81.5194 13.6904C81.7281 13.4817 81.8324 13.2104 81.8324 12.8765C81.8324 12.5426 81.7072 12.2504 81.4568 12C81.2481 11.7496 80.9976 11.6243 80.7054 11.6243ZM96.1072 36.8557C96.1072 35.5617 96.3368 34.3722 96.7959 33.287C97.255 32.16 97.8811 31.2 98.6741 30.407C99.5089 29.5722 100.469 28.9252 101.554 28.4661C102.681 27.9652 103.871 27.7148 105.123 27.7148C106.375 27.7148 107.565 27.9652 108.692 28.4661C109.818 28.9252 110.799 29.5722 111.634 30.407C112.469 31.2 113.116 32.16 113.575 33.287C114.034 34.3722 114.264 35.5409 114.264 36.793C114.264 38.0452 114.034 39.2348 113.575 40.3617C113.116 41.447 112.469 42.407 111.634 43.2417C110.841 44.0348 109.881 44.6817 108.754 45.1826C107.669 45.6417 106.5 45.8713 105.248 45.8713C103.996 45.8713 102.806 45.6417 101.679 45.1826C100.552 44.7235 99.5715 44.0974 98.7368 43.3043C97.9437 42.4696 97.2968 41.5096 96.7959 40.4243C96.3368 39.2974 96.1072 38.1078 96.1072 36.8557ZM105.311 37.9826C105.645 37.9826 105.916 37.8574 106.125 37.607C106.375 37.3565 106.479 37.0643 106.438 36.7304C106.438 36.4383 106.292 36.167 105.999 35.9165C105.749 35.6661 105.498 35.5617 105.248 35.6035C104.914 35.6035 104.622 35.7287 104.372 35.9791C104.163 36.2296 104.058 36.5217 104.058 36.8557C104.058 37.1478 104.184 37.4191 104.434 37.6696C104.685 37.92 104.977 38.0243 105.311 37.9826Z" fill="#1F3245" fill-opacity="0.85"/>
</svg>
