<svg width="111" height="50" viewBox="0 0 111 50" fill="none" xmlns="http://www.w3.org/2000/svg">
<path d="M14.7757 19.6383H3.31826C2.73391 19.6383 2.27478 19.6174 1.94087 19.5757C1.60696 19.5339 1.35652 19.4504 1.18957 19.3252C1.02261 19.1583 0.897391 18.9078 0.813913 18.5739C0.772174 18.24 0.751304 17.7809 0.751304 17.1965C0.751304 16.2365 0.730435 15.2974 0.688696 14.3791C0.646957 13.4609 0.667826 12.5426 0.751304 11.6243C0.834783 10.7478 0.98087 10.2052 1.18957 9.99652C1.39826 9.78783 1.96174 9.68348 2.88 9.68348C6.26087 9.68348 9.64174 9.70435 13.0226 9.74609C16.4452 9.74609 19.847 9.74609 23.2278 9.74609H27.6104H28.5496C29.6348 9.82957 30.2817 10.08 30.4904 10.4974C30.7409 10.9148 30.6365 11.6035 30.1774 12.5635C27.1722 18.3235 24.1878 24.0626 21.2243 29.7809C18.3026 35.4991 15.3391 41.2383 12.3339 46.9983C12.0417 47.5826 11.7078 48.0209 11.3322 48.313C10.9565 48.6052 10.4139 48.7722 9.70435 48.8139C7.15826 48.9391 4.61217 49.0017 2.06609 49.0017C1.14783 49.0017 0.584348 48.8348 0.375652 48.5009C0.166957 48.167 0.271304 47.6035 0.688696 46.8104C2.27478 43.847 3.81913 40.9252 5.32174 38.0452C6.86609 35.1235 8.4313 32.1809 10.0174 29.2174C10.7687 27.7983 11.52 26.3791 12.2713 24.96C13.0226 23.5409 13.7739 22.1009 14.5252 20.64C14.6087 20.5148 14.6922 20.3896 14.7757 20.2643C14.8591 20.0974 14.8591 19.8887 14.7757 19.6383ZM33.2179 20.2643C33.2179 18.7617 33.1971 17.28 33.1553 15.8191C33.1553 14.3165 33.1762 12.8139 33.2179 11.3113C33.2179 10.6017 33.3223 10.1426 33.531 9.93391C33.7814 9.72522 34.2614 9.62087 34.971 9.62087H59.7014C60.5362 9.62087 61.0371 9.74609 61.204 9.99652C61.4127 10.2052 61.5171 10.727 61.5171 11.5617C61.4753 13.6904 61.4753 15.7774 61.5171 17.8226C61.5588 18.6574 61.4545 19.2209 61.204 19.513C60.9536 19.7635 60.411 19.8887 59.5762 19.8887H46.8666C46.6579 19.8887 46.4493 19.8887 46.2406 19.8887C46.0736 19.8887 45.8858 19.9096 45.6771 19.9513C45.3432 19.9513 45.1762 20.16 45.1762 20.5774C45.1762 20.953 45.3432 21.1409 45.6771 21.1409C47.6388 21.1409 49.4336 21.2243 51.0614 21.3913C52.6893 21.5165 54.4214 21.9757 56.2579 22.7687C57.9693 23.4783 59.4093 24.4174 60.5779 25.5861C61.7884 26.7548 62.6858 28.2574 63.2701 30.0939C63.7293 31.3878 63.9171 32.6609 63.8336 33.913C63.7501 35.1652 63.4579 36.4383 62.9571 37.7322C61.5797 41.3635 59.451 44.2435 56.571 46.3722C53.7327 48.5009 50.3727 49.5652 46.491 49.5652C44.3623 49.5652 42.4006 49.1896 40.6058 48.4383C38.8527 47.687 37.2875 46.5183 35.9101 44.9322C35.4927 44.473 35.284 44.0974 35.284 43.8052C35.284 43.4713 35.4927 43.0748 35.9101 42.6157C36.7866 41.6139 37.7466 40.7165 38.7901 39.9235C39.8753 39.1304 40.8979 38.2748 41.8579 37.3565C42.1501 37.1478 42.4214 37.1687 42.6719 37.4191C42.7971 37.5026 42.9223 37.607 43.0475 37.7322C43.1727 37.8574 43.2979 37.9617 43.4232 38.0452C44.2997 38.5878 45.1136 38.8591 45.8649 38.8591C46.9084 38.8591 47.9101 38.4626 48.8701 37.6696C49.8301 36.8348 50.4562 35.9374 50.7484 34.9774C51.0823 33.8087 51.0197 32.8278 50.5606 32.0348C50.1014 31.2 49.2666 30.6574 48.0562 30.407C47.0962 30.1983 46.1153 30.073 45.1136 30.0313C44.1536 29.9896 43.1727 29.9896 42.171 30.0313C40.8353 30.1148 39.5206 30.1774 38.2266 30.2191C36.9327 30.2191 35.6388 30.24 34.3449 30.2817C33.7606 30.2817 33.4266 30.24 33.3432 30.1565C33.2597 30.073 33.2179 29.7391 33.2179 29.1548C33.1762 27.6939 33.1553 26.2122 33.1553 24.7096C33.1971 23.207 33.2179 21.7252 33.2179 20.2643ZM101.325 0.229566H104.957H105.52C107.44 0.271305 107.962 1.14783 107.085 2.85913C105.499 5.86435 103.892 8.89043 102.264 11.9374C100.678 14.9426 99.0922 17.9478 97.5061 20.953L83.4191 47.8122C83.1687 48.2713 82.96 48.6052 82.793 48.8139C82.6678 49.0643 82.5217 49.2313 82.3548 49.3148C82.1878 49.44 81.9582 49.5026 81.6661 49.5026C81.4156 49.5026 81.04 49.4817 80.5391 49.44C79.2452 49.3565 77.9513 49.273 76.6574 49.1896C75.4052 49.1061 74.153 49.0226 72.9009 48.9391C72.6504 48.9391 72.4 48.9391 72.1496 48.9391C71.8991 48.9391 71.6696 48.9183 71.4609 48.8765C70.7096 48.7096 70.4382 48.2296 70.6469 47.4365L71.2104 46.3096C75.1756 38.8383 79.12 31.4296 83.0435 24.0835C86.9669 16.7374 90.9113 9.3287 94.8765 1.85739C95.4191 0.772174 96.2748 0.250435 97.4435 0.292175C98.0696 0.333911 98.6956 0.35478 99.3217 0.35478C99.9896 0.313043 100.657 0.292175 101.325 0.292175V0.229566ZM86.2991 12.8139C86.2991 14.0661 86.0487 15.2557 85.5478 16.3826C85.0887 17.5096 84.4417 18.4904 83.6069 19.3252C82.8139 20.16 81.8539 20.807 80.7269 21.2661C79.6417 21.7252 78.473 21.9548 77.2209 21.9548C75.9687 21.9548 74.7791 21.7252 73.6522 21.2661C72.5252 20.7652 71.5443 20.0974 70.7096 19.2626C69.9165 18.4278 69.2904 17.447 68.8313 16.32C68.3722 15.193 68.1426 14.0035 68.1426 12.7513C68.1426 11.4991 68.3722 10.3304 68.8313 9.24522C69.3322 8.16 69.9791 7.22087 70.7722 6.42782C71.6069 5.59304 72.5669 4.94608 73.6522 4.48696C74.7374 3.98609 75.9061 3.73565 77.1582 3.73565C78.4104 3.73565 79.6 3.96522 80.7269 4.42435C81.8539 4.88348 82.8139 5.53043 83.6069 6.36522C84.4417 7.15826 85.0887 8.11826 85.5478 9.24522C86.0487 10.3722 86.2991 11.5617 86.2991 12.8139ZM77.3461 11.6243C77.0122 11.6243 76.72 11.7496 76.4696 12C76.2609 12.2087 76.1565 12.48 76.1565 12.8139C76.1565 13.607 76.553 14.0035 77.3461 14.0035C77.68 14.0035 77.9513 13.8991 78.16 13.6904C78.3687 13.4817 78.473 13.2104 78.473 12.8765C78.473 12.5426 78.3478 12.2504 78.0974 12C77.8887 11.7496 77.6382 11.6243 77.3461 11.6243ZM92.7478 36.8557C92.7478 35.5617 92.9774 34.3722 93.4365 33.287C93.8956 32.16 94.5217 31.2 95.3148 30.407C96.1496 29.5722 97.1096 28.9252 98.1948 28.4661C99.3217 27.9652 100.511 27.7148 101.763 27.7148C103.016 27.7148 104.205 27.9652 105.332 28.4661C106.459 28.9252 107.44 29.5722 108.275 30.407C109.11 31.2 109.757 32.16 110.216 33.287C110.675 34.3722 110.904 35.5409 110.904 36.793C110.904 38.0452 110.675 39.2348 110.216 40.3617C109.757 41.447 109.11 42.407 108.275 43.2417C107.482 44.0348 106.522 44.6817 105.395 45.1826C104.31 45.6417 103.141 45.8713 101.889 45.8713C100.637 45.8713 99.4469 45.6417 98.32 45.1826C97.193 44.7235 96.2122 44.0974 95.3774 43.3043C94.5843 42.4696 93.9374 41.5096 93.4365 40.4243C92.9774 39.2974 92.7478 38.1078 92.7478 36.8557ZM101.951 37.9826C102.285 37.9826 102.557 37.8574 102.765 37.607C103.016 37.3565 103.12 37.0643 103.078 36.7304C103.078 36.4383 102.932 36.167 102.64 35.9165C102.39 35.6661 102.139 35.5617 101.889 35.6035C101.555 35.6035 101.263 35.7287 101.012 35.9791C100.803 36.2296 100.699 36.5217 100.699 36.8557C100.699 37.1478 100.824 37.4191 101.075 37.6696C101.325 37.92 101.617 38.0243 101.951 37.9826Z" fill="#1F3245" fill-opacity="0.85"/>
</svg>
