<svg width="50" height="50" viewBox="0 0 50 50" fill="none" xmlns="http://www.w3.org/2000/svg">
<path fill-rule="evenodd" clip-rule="evenodd" d="M25 50C38.8071 50 50 38.8071 50 25C50 11.1929 38.8071 0 25 0C11.1929 0 0 11.1929 0 25C0 38.8071 11.1929 50 25 50ZM28.3754 15.0025C28.5251 15.0134 32.0234 15.315 34.2347 17.0945C35.4348 18.2013 37.7764 24.5294 37.7764 30.0003C37.7764 30.098 37.7504 30.1913 37.7026 30.2759C36.088 33.1145 31.6805 33.8567 30.6757 33.8892H30.6583C30.4804 33.8892 30.3133 33.8046 30.2091 33.6614L29.1935 32.2638C31.9344 31.5563 33.3341 30.3541 33.4144 30.2825C33.6445 30.0806 33.6662 29.7312 33.4643 29.5012C33.2603 29.269 32.911 29.2495 32.6809 29.4491L32.6801 29.4498C32.6204 29.5 30.0429 31.667 24.9986 31.667C19.9292 31.667 17.3511 29.4795 17.3185 29.4491C17.0885 29.2473 16.7369 29.269 16.5351 29.499C16.3311 29.7291 16.3528 30.0806 16.5828 30.2825C16.6631 30.3541 18.0629 31.5563 20.8037 32.2638L19.7881 33.6614C19.684 33.8046 19.5169 33.8892 19.3389 33.8892H19.3215C18.3168 33.8567 13.9092 33.1145 12.2946 30.2759C12.2469 30.1913 12.2208 30.098 12.2208 30.0003C12.2208 24.5294 14.5624 18.2013 15.7321 17.1184C17.9739 15.315 21.4721 15.0134 21.6219 15.0025C21.8563 14.9786 22.0754 15.1132 22.1731 15.328L22.1739 15.33C22.1845 15.3545 22.2583 15.5257 22.3402 15.7924C20.8775 16.0377 19.0807 16.5368 17.4552 17.5437C17.1948 17.7065 17.1145 18.0472 17.2773 18.3098C17.4379 18.5702 17.7807 18.6505 18.0412 18.4878C20.8341 16.7538 24.3259 16.667 24.9986 16.667C25.6714 16.667 29.161 16.7538 31.9561 18.4878C32.0472 18.5442 32.1492 18.5724 32.2491 18.5724C32.4357 18.5724 32.6158 18.4791 32.7221 18.3076C32.8827 18.0472 32.8024 17.7043 32.542 17.5437C30.9166 16.5346 29.1197 16.0377 27.657 15.7903C27.7417 15.5168 27.8176 15.3411 27.8263 15.328C27.9218 15.1132 28.1432 14.983 28.3754 15.0025ZM19.4431 25.5559C19.4431 26.7842 20.3133 27.7781 21.3875 27.7781C22.4617 27.7781 23.332 26.7842 23.332 25.5559C23.332 24.3276 22.4617 23.3337 21.3875 23.3337C20.3133 23.3337 19.4431 24.3276 19.4431 25.5559ZM26.6653 25.5559C26.6653 26.7842 27.5355 27.7781 28.6097 27.7781C29.684 27.7781 30.5542 26.7842 30.5542 25.5559C30.5542 24.3276 29.684 23.3337 28.6097 23.3337C27.5355 23.3337 26.6653 24.3276 26.6653 25.5559Z" fill="white"/>
</svg>
