<svg width="50" height="50" viewBox="0 0 50 50" fill="none" xmlns="http://www.w3.org/2000/svg">
<path fill-rule="evenodd" clip-rule="evenodd" d="M25 50C38.8071 50 50 38.8071 50 25C50 11.1929 38.8071 0 25 0C11.1929 0 0 11.1929 0 25C0 38.8071 11.1929 50 25 50ZM10.0894 23.1162C10.8409 16.3855 16.4022 10.8514 23.3162 10.1035C32.3345 9.05653 40 16.0864 40 25.0606C40 31.3426 36.0921 36.7271 30.5308 38.9707C29.9296 39.1202 29.4787 38.6715 29.4787 38.2228V34.334C29.4787 32.9878 28.8775 31.6417 27.9756 30.8938C31.4326 30.146 33.9878 28.2016 33.9878 24.911C33.9878 23.1162 33.2363 21.6205 32.1842 20.4239C32.3345 20.1248 32.4848 19.5265 32.4848 18.3299C32.4848 17.7316 32.4848 16.8342 32.1842 15.9368C32.1842 15.9368 29.9296 15.9368 27.9756 17.8812C27.0738 17.5821 26.0217 17.4325 24.9695 17.4325C23.9174 17.4325 22.8653 17.5821 22.1138 17.8812C20.0095 15.9368 17.9052 15.9368 17.9052 15.9368C17.4543 16.8342 17.4543 17.7316 17.4543 18.3299C17.4543 19.3769 17.6046 20.1248 17.7549 20.4239C16.7028 21.6205 15.9513 23.2657 15.9513 24.911C15.9513 28.2016 18.5065 30.146 21.9635 30.8938C21.0616 31.4921 20.6107 32.5391 20.4604 33.5861C20.1598 33.7357 19.7089 33.8853 19.1077 33.8853C18.6568 33.8853 17.7549 33.5861 17.0034 32.3896C16.7028 31.9408 15.9513 30.8938 15.0495 30.8938C14.8991 30.8938 14.4482 30.8938 14.4482 31.193C14.4482 31.3078 14.5368 31.3345 14.7819 31.4083C14.8561 31.4307 14.9447 31.4574 15.0495 31.4921C15.5004 31.9408 15.801 32.3896 15.9513 32.9878C16.1016 34.0348 17.0034 35.8297 19.1077 35.8297C19.8592 35.8297 20.4604 35.6801 20.4604 35.6801V38.0732C20.4604 38.6715 20.0095 38.9707 19.5586 38.8211C13.3961 36.428 9.33788 30.146 10.0894 23.1162Z" fill="white"/>
</svg>
