<svg width="50" height="50" viewBox="0 0 50 50" fill="none" xmlns="http://www.w3.org/2000/svg">
<path fill-rule="evenodd" clip-rule="evenodd" d="M50 25C50 38.8071 38.8071 50 25 50C11.1929 50 0 38.8071 0 25C0 11.1929 11.1929 0 25 0C38.8071 0 50 11.1929 50 25ZM13.7547 25.9262L13.8513 25.7827L19.6805 17.1706C19.7657 17.0444 19.966 17.0575 20.0305 17.1944C21.0043 19.2557 21.8446 21.8191 21.4509 23.415C21.2829 24.0716 20.8224 24.9609 20.3044 25.7827C20.2377 25.9023 20.164 26.0198 20.0857 26.1328C20.0489 26.185 19.9867 26.2154 19.9199 26.2154H13.925C13.7638 26.2154 13.6695 26.0502 13.7547 25.9262ZM39.8141 29.1467V27.7077C39.8141 27.5746 39.6802 27.4781 39.5486 27.5149L32.4667 29.4795C32.4284 29.4887 32.3949 29.5093 32.3686 29.5369C31.6108 30.3402 30.9666 30.8795 30.7952 31.023L30.7829 31.0333C30.3428 31.3913 29.7975 31.5864 29.2235 31.5864H26.6596V29.0778H28.6973C28.7499 29.0778 28.8001 29.0595 28.8384 29.0274L29.1015 28.7955C29.2139 28.6968 29.3479 28.5775 29.5081 28.4237C29.5213 28.4111 29.5347 28.3983 29.5482 28.3853C29.6328 28.3045 29.7232 28.2181 29.8119 28.1231C29.9171 28.0244 30.0199 27.9142 30.1156 27.8064C30.2758 27.6411 30.4289 27.469 30.5892 27.2877C30.704 27.1683 30.8092 27.0329 30.912 26.8975C31.0269 26.769 31.1393 26.6244 31.2445 26.4867C31.2836 26.4316 31.3252 26.3759 31.3677 26.319C31.4084 26.2645 31.4499 26.2088 31.4909 26.1516C31.5674 26.0414 31.6439 25.9244 31.7085 25.8142C31.9094 25.5159 32.0792 25.1968 32.2227 24.8778C32.2886 24.7411 32.3413 24.5972 32.3925 24.4573C32.3989 24.4398 32.4053 24.4224 32.4117 24.405C32.4691 24.2421 32.5169 24.0883 32.5528 23.9253C32.6389 23.5421 32.658 23.1611 32.6198 22.7801C32.6102 22.6608 32.6006 22.5437 32.5719 22.4335V22.4152C32.5623 22.3372 32.5432 22.2499 32.5169 22.1696C32.4308 21.7978 32.2968 21.426 32.1271 21.0611C32.0696 20.9256 32.0027 20.7879 31.9381 20.6617C31.7851 20.3886 31.6248 20.1155 31.443 19.8516C31.4065 19.7958 31.3662 19.7393 31.326 19.6829C31.295 19.6395 31.2641 19.5961 31.2349 19.5532C31.12 19.3831 30.9908 19.2191 30.8655 19.06C30.8369 19.0237 30.8085 18.9877 30.7805 18.9519C30.7062 18.8583 30.6248 18.7646 30.543 18.6704C30.4984 18.6191 30.4536 18.5676 30.4098 18.5158C30.2854 18.3712 30.1634 18.2335 30.0391 18.0981C29.5942 17.6161 29.1278 17.18 28.7117 16.8083C28.6351 16.7348 28.5514 16.6614 28.4653 16.5902C28.1424 16.3079 27.8483 16.0624 27.6019 15.8718C27.5275 15.8169 27.4607 15.7628 27.3986 15.7124C27.357 15.6787 27.3174 15.6466 27.279 15.6171C27.2038 15.5633 27.1386 15.5157 27.084 15.4757C27.05 15.4509 27.0201 15.429 26.9944 15.4105C26.9752 15.3968 26.9537 15.3876 26.9322 15.3807L26.6596 15.3073V13.1407C26.6596 12.7872 26.5113 12.4705 26.2745 12.2387C26.0377 12.0069 25.7077 11.8646 25.3441 11.8646C24.617 11.8646 24.0286 12.4361 24.0286 13.1407V14.6004L23.8923 14.5636L23.5216 14.4627L23.1844 14.3732C23.1834 14.3732 23.1824 14.3728 23.1812 14.3723C23.1796 14.3716 23.1776 14.3709 23.1748 14.3709H23.1676L20.6084 13.7053C20.496 13.6754 20.4004 13.7925 20.4578 13.8912L20.8667 14.6164C20.89 14.6721 20.9193 14.7277 20.9495 14.7849C20.9691 14.8221 20.9891 14.8599 21.0079 14.8987C21.0749 15.0273 21.1418 15.1627 21.2064 15.2981C21.2638 15.4174 21.3212 15.5345 21.3882 15.663C21.4161 15.723 21.4446 15.7836 21.4735 15.8452C21.5806 16.0734 21.6932 16.3134 21.8043 16.5719L21.8053 16.574C21.9006 16.7913 21.996 17.0087 22.0794 17.2351C22.309 17.8066 22.5266 18.4171 22.7156 19.0437C22.7626 19.1838 22.8001 19.3194 22.8382 19.4568C22.8544 19.5152 22.8707 19.574 22.8878 19.6335L22.9141 19.7437C22.9906 20.0352 23.0576 20.3243 23.1054 20.6158C23.1437 20.8155 23.1796 21.006 23.1987 21.1988L23.1987 21.1989C23.2274 21.4169 23.2561 21.6349 23.2657 21.8529C23.2848 22.0526 23.2944 22.2614 23.2944 22.4611C23.2944 22.9706 23.2466 23.4617 23.1342 23.9253C23.1272 23.9501 23.1202 23.9751 23.1131 24.0003C23.0816 24.1133 23.0489 24.2305 23.0097 24.3431C22.9744 24.4635 22.9286 24.5839 22.8811 24.7089C22.8643 24.7531 22.8472 24.7978 22.8304 24.8434C22.8273 24.8513 22.8242 24.8592 22.8212 24.8672C22.7859 24.9583 22.75 25.051 22.706 25.1418C22.4692 25.688 22.175 26.2319 21.8713 26.7414C21.4264 27.4965 20.9792 28.1598 20.6659 28.5867C20.6466 28.6144 20.6279 28.6407 20.6098 28.6661C20.5874 28.6974 20.5661 28.7273 20.5463 28.7565C20.4482 28.8897 20.5486 29.0778 20.7185 29.0778H24.0286V31.5864H20.6802C19.7809 31.5864 18.9486 31.0975 18.5468 30.3149C18.3387 29.9225 18.2574 29.491 18.3052 29.0687C18.3172 28.9424 18.2191 28.8231 18.0852 28.8231H11.3213C11.2066 28.8231 11.1133 28.9126 11.1133 29.0227V29.1559C11.1133 33.2962 14.598 36.6517 18.8984 36.6517H31.0316C33.306 36.6517 34.5975 34.6628 35.8668 32.708C36.2207 32.1631 36.5728 31.6209 36.944 31.1251C37.6113 30.2346 39.2162 29.5277 39.6849 29.3349C39.7615 29.3028 39.8141 29.2293 39.8141 29.1467Z" fill="white"/>
</svg>
