<svg width="50" height="50" viewBox="0 0 50 50" fill="none" xmlns="http://www.w3.org/2000/svg">
<path fill-rule="evenodd" clip-rule="evenodd" d="M25 50C38.8071 50 50 38.8071 50 25C50 11.1929 38.8071 0 25 0C11.1929 0 0 11.1929 0 25C0 38.8071 11.1929 50 25 50ZM30.3958 20.3076C30.9792 20.021 31.6354 20.021 32.1458 20.3076L38.0521 23.6747C38.6354 24.0329 38.9271 24.6061 38.9271 25.1792V31.9852C38.9271 32.63 38.5625 33.2031 38.0521 33.4897L32.1458 36.8568C31.5625 37.1434 30.9062 37.1434 30.3958 36.8568L24.4896 33.4897C23.9062 33.1315 23.6146 32.5583 23.6146 31.9852V29.621L26.3854 28.0449V30.3374C26.3854 30.9822 26.75 31.5553 27.2604 31.8419L30.3958 33.6329C30.9792 33.9195 31.6354 33.9195 32.1458 33.6329L35.2083 31.8419C35.7917 31.4837 36.0833 30.9106 36.0833 30.3374V26.7553C36.0833 26.1106 35.7188 25.5374 35.2083 25.2509L32.0729 23.4598C31.4896 23.1732 30.8333 23.1732 30.3229 23.4598L26.3125 25.7523L23.5417 27.3285L19.5312 29.621C18.9479 29.9076 18.2917 29.9076 17.7812 29.621L11.875 26.2538C11.2917 25.8956 11 25.3225 11 24.7494V18.015C11 17.4419 11.2917 16.8688 11.875 16.5822L17.8542 13.1434C18.4375 12.8568 19.0938 12.8568 19.6042 13.1434L25.4375 16.5106C26.0208 16.8688 26.3125 17.4419 26.3125 18.015V20.4509L23.5417 22.027V19.6628C23.5417 19.018 23.1771 18.4449 22.6667 18.1583L19.5312 16.2956C18.9479 16.0091 18.2917 16.0091 17.7812 16.2956L14.6458 18.0867C14.0625 18.4449 13.7708 19.018 13.7708 19.5912V23.1732C13.7708 23.818 14.1354 24.3912 14.6458 24.6777L17.7812 26.5404C18.3646 26.827 19.0208 26.827 19.5312 26.5404L23.5417 24.1762L26.3125 22.6717L30.3958 20.3076Z" fill="white"/>
</svg>
