<svg width="50" height="50" viewBox="0 0 50 50" fill="none" xmlns="http://www.w3.org/2000/svg">
<path fill-rule="evenodd" clip-rule="evenodd" d="M25 50C38.8071 50 50 38.8071 50 25C50 11.1929 38.8071 0 25 0C11.1929 0 0 11.1929 0 25C0 38.8071 11.1929 50 25 50ZM36.3312 17.811C37.4879 17.6721 38.5881 17.3661 39.6146 16.9104C38.8485 18.0562 37.8806 19.0632 36.7652 19.8683C36.7739 20.1113 36.7804 20.3609 36.7804 20.6083C36.7804 28.156 31.0339 36.8605 20.526 36.8605C17.299 36.8605 14.2956 35.9165 11.7695 34.2932C12.2144 34.3474 12.668 34.3735 13.1302 34.3735C15.8082 34.3735 18.2713 33.462 20.2244 31.9299C17.7266 31.8843 15.6172 30.2285 14.888 27.9607C15.2374 28.0302 15.5955 28.0649 15.9644 28.0649C16.4852 28.0649 16.9909 27.9954 17.4683 27.8652C14.8576 27.3379 12.8872 25.031 12.8872 22.2619V22.1903C13.6576 22.6178 14.5386 22.8761 15.4761 22.9065C13.9418 21.88 12.9349 20.1309 12.9349 18.1495C12.9349 17.1035 13.2148 16.1226 13.7075 15.2763C16.5265 18.7333 20.7344 21.0076 25.4826 21.2463C25.385 20.8275 25.3329 20.3913 25.3329 19.9442C25.3329 16.7888 27.8915 14.2324 31.0469 14.2324C32.6897 14.2324 34.174 14.9247 35.2157 16.0358C36.5156 15.7797 37.7418 15.3045 38.8442 14.6513C38.4188 15.9837 37.5117 17.1035 36.3312 17.811Z" fill="white"/>
</svg>
